Coordinates
version=1
nRows=6
nColumns=107
inDegrees=yes

Units are S.I. units (second, meters, Newtons, ...)
If the header above contains a line with 'inDegrees', this indicates whether rotational values are in degrees (yes) or radians (no).

endheader
time	sternoclavicular_r2	sternoclavicular_r3	unrotscap_r3	unrotscap_r2	acromioclavicular_r2	acromioclavicular_r3	acromioclavicular_r1	unrothum_r1	unrothum_r3	unrothum_r2	elv_angle	shoulder_elv	shoulder1_r2	shoulder_rot	elbow_flexion	pro_sup	deviation	flexion	proximal_distal_r1	proximal_distal_r3	cmc_flexion	cmc_abduction	mp_flexion	ip_flexion	mcp2_flexion	mcp2_abduction	pm2_flexion	md2_flexion	mcp3_flexion	mcp3_abduction	pm3_flexion	md3_flexion	mcp4_flexion	mcp4_abduction	pm4_flexion	md4_flexion	mcp5_flexion	mcp5_abduction	pm5_flexion	md5_flexion	bicpt_tx	bicpt_ty	bicpt_tz	bicpt2_tx	bicpt2_ty	bicpt2_tz	ptpt_tx	ptpt_ty	ptpt_tz	FCUpt_tx	FCUpt_ty	FCUpt_tz	EDCpt_tx	EDCpt_ty	EDCpt_tz	APLpt_tx	APLpt_ty	APLpt_tz	FPLpt_tx	FPLpt_ty	FPLpt_tz	FPLpt2_tx	FPLpt2_ty	FPLpt2_tz	PEC1pt2_tx	PEC1pt2_ty	PEC1pt2_tz	PEC1pt3_tx	PEC1pt3_ty	PEC1pt3_tz	PEC2pt2_tx	PEC2pt2_ty	PEC2pt2_tz	PEC2pt3_tx	PEC2pt3_ty	PEC2pt3_tz	PEC3pt2_tx	PEC3pt2_ty	PEC3pt2_tz	PEC3pt3_tx	PEC3pt3_ty	PEC3pt3_tz	DELT2pt2a_tx	DELT2pt2a_ty	DELT2pt2a_tz	DELT2pt2_tx	DELT2pt2_ty	DELT2pt2_tz	LAT1pt2_tx	LAT1pt2_ty	LAT1pt2_tz	LAT1pt3_tx	LAT1pt3_ty	LAT1pt3_tz	LAT2pt2_tx	LAT2pt2_ty	LAT2pt2_tz	LAT2pt3_tx	LAT2pt3_ty	LAT2pt3_tz	LAT3pt2_tx	LAT3pt2_ty	LAT3pt2_tz	LAT3pt3_tx	LAT3pt3_ty	LAT3pt3_tz
      0.43333333	     -0.31497529	      0.13340867	     -0.13340867	      0.31497529	     -0.06377609	      0.51541592	      0.23167591	     -0.23167591	     -0.51541592	      0.06377609	    100.51954853	     74.57320046	     -1.75439708	    -35.46043170	     31.81343967	     86.76638817	      0.38210975	     -0.45932780	      0.39906829	     -0.22966390	     42.74342024	    -21.18986335	     16.19835319	      9.80272590	     82.96854462	     11.83286212	     73.61531066	     86.08311757	     91.93159687	     -1.97341537	     78.40609481	     56.89812470	     89.54000841	    -13.86892157	     90.11203118	     41.89969838	    100.67451503	    -14.31998834	     87.24907779	      5.52403013	      0.00095229	     -0.03124631	     -0.00488732	      0.01416007	     -0.01884228	     -0.00094442	      0.00113894	     -0.06904550	     -0.00703950	      0.01282613	     -0.18221171	      0.00010511	     -0.01041194	      0.00362015	     -0.00078197	      0.00029330	      0.00011732	      0.00058659	      0.00037542	      0.00112625	      0.00063352	     -0.00000586	     -0.00005359	     -0.00006430	      0.00244435	      0.00857593	      0.00596586	     -0.00799591	      0.01930619	     -0.01831188	      0.00244435	      0.00857593	      0.00596586	      0.00053858	      0.01789758	     -0.00940452	      0.00388714	      0.00476896	      0.01581710	      0.00000000	      0.00743516	      0.00000000	     -0.00700160	     -0.03235651	     -0.00612863	      0.02109932	     -0.00094743	     -0.01032892	     -0.00087002	      0.01458322	     -0.00596586	      0.00240292	      0.02104623	     -0.01740043	     -0.00584157	      0.01263603	     -0.00534442	     -0.01218030	      0.02668066	     -0.02987073	     -0.02286913	      0.01412749	     -0.00716732	     -0.01516323	      0.03082362	     -0.03732806
      0.46666667	     -0.31500569	      0.13342154	     -0.13342154	      0.31500569	     -0.06378224	      0.51546566	      0.23169827	     -0.23169827	     -0.51546566	      0.06378224	    100.49920441	     74.58039649	     -1.75404201	    -35.47053952	     31.80048839	     86.76692173	      0.38210378	     -0.45931181	      0.39906390	     -0.22965590	     42.74295493	    -21.18981355	     16.19781035	      9.80266664	     82.96814918	     11.83255907	     73.61495224	     86.08253691	     91.93122058	     -1.97367098	     78.40604087	     56.89811775	     89.53953246	    -13.86890781	     90.11240153	     41.89977136	    100.67374987	    -14.31995158	     87.24984502	      5.52400437	      0.00095186	     -0.03124482	     -0.00488709	      0.01415996	     -0.01883876	     -0.00094429	      0.00113890	     -0.06904552	     -0.00703954	      0.01282619	     -0.18221168	      0.00010514	     -0.01041201	      0.00362019	     -0.00078200	      0.00029327	      0.00011731	      0.00058653	      0.00037538	      0.00112614	      0.00063345	     -0.00000586	     -0.00005360	     -0.00006432	      0.00244458	      0.00857675	      0.00596644	     -0.00799668	      0.01930805	     -0.01831365	      0.00244458	      0.00857675	      0.00596644	      0.00053864	      0.01789931	     -0.00940542	      0.00388742	      0.00476942	      0.01581779	      0.00000000	      0.00743661	      0.00000000	     -0.00700228	     -0.03235963	     -0.00612983	      0.02110295	     -0.00094779	     -0.01033454	     -0.00087011	      0.01458462	     -0.00596644	      0.00240315	      0.02104826	     -0.01740211	     -0.00584214	      0.01263724	     -0.00534493	     -0.01218148	      0.02668323	     -0.02987362	     -0.02287134	      0.01412885	     -0.00716801	     -0.01516469	      0.03082659	     -0.03733166
      0.50000000	     -0.31406370	      0.13302256	     -0.13302256	      0.31406370	     -0.06359151	      0.51392421	      0.23100540	     -0.23100540	     -0.51392421	      0.06359151	    100.85415924	     74.35737151	     -1.76023714	    -36.76427022	     31.67334694	     87.32825203	      0.37627720	     -0.47926085	      0.39477348	     -0.23963043	     42.75440844	    -20.89794587	     15.98568777	     10.16084518	     82.93708009	     11.72460848	     73.57682199	     83.60771052	     91.95939078	     -2.24285308	     78.60804240	     56.72164176	     89.13914380	    -13.86269232	     91.49839523	     40.86644020	    100.03251707	    -14.32172037	     89.69090395	      5.40132103	      0.00094766	     -0.03123025	     -0.00488474	      0.01410059	     -0.01880422	     -0.00084734	      0.00109743	     -0.06907234	     -0.00708476	      0.01289086	     -0.18219250	      0.00012105	     -0.01047937	      0.00365118	     -0.00080035	      0.00029800	      0.00011920	      0.00059599	      0.00038143	      0.00114430	      0.00064367	     -0.00000583	     -0.00005334	     -0.00006401	      0.00243727	      0.00855110	      0.00594859	     -0.00797277	      0.01925031	     -0.01825888	      0.00243727	      0.00855110	      0.00594859	      0.00053703	      0.01784578	     -0.00937730	      0.00387884	      0.00475516	      0.01579624	      0.00000000	      0.00739191	      0.00000000	     -0.00698134	     -0.03226286	     -0.00609271	      0.02157061	     -0.00099394	     -0.01105187	     -0.00086750	      0.01454101	     -0.00594859	      0.00239596	      0.02098532	     -0.01735007	     -0.00582467	      0.01259945	     -0.00532895	     -0.01214505	      0.02660344	     -0.02978428	     -0.02280295	      0.01408660	     -0.00714658	     -0.01511934	      0.03073441	     -0.03722003
      0.53333333	     -0.31419994	      0.13308026	     -0.13308026	      0.31419994	     -0.06361910	      0.51414715	      0.23110561	     -0.23110561	     -0.51414715	      0.06361910	    100.82010752	     74.38962763	     -1.75964283	    -36.65846959	     31.66848492	     87.40218294	      0.37714232	     -0.47177501	      0.39541399	     -0.23588751	     42.73084150	    -20.92107766	     16.07128358	      9.95955171	     83.14610305	     11.66084578	     73.47404482	     83.74864828	     91.96133530	     -2.29259785	     78.80524820	     55.81396572	     89.23094011	    -13.87270635	     91.28175774	     41.17653623	    100.14344896	    -14.32408919	     89.78323799	      5.38745162	      0.00094750	     -0.03122969	     -0.00488465	      0.01409272	     -0.01880290	     -0.00083454	      0.00109196	     -0.06907587	     -0.00709071	      0.01289938	     -0.18218997	      0.00012316	     -0.01048824	      0.00365526	     -0.00080277	      0.00029630	      0.00011852	      0.00059260	      0.00037926	      0.00113779	      0.00064001	     -0.00000588	     -0.00005387	     -0.00006464	      0.00243833	      0.00855481	      0.00595118	     -0.00797623	      0.01925866	     -0.01826680	      0.00243833	      0.00855481	      0.00595118	      0.00053726	      0.01785353	     -0.00938137	      0.00388008	      0.00475722	      0.01579936	      0.00000000	      0.00739837	      0.00000000	     -0.00698437	     -0.03227686	     -0.00609807	      0.02153322	     -0.00099015	     -0.01099258	     -0.00086788	      0.01454732	     -0.00595118	      0.00239700	      0.02099442	     -0.01735759	     -0.00582719	      0.01260492	     -0.00533126	     -0.01215032	      0.02661498	     -0.02979720	     -0.02281284	      0.01409271	     -0.00714968	     -0.01512590	      0.03074774	     -0.03723617
      0.56666667	     -0.31439128	      0.13316131	     -0.13316131	      0.31439128	     -0.06365784	      0.51446026	      0.23124634	     -0.23124634	     -0.51446026	      0.06365784	    100.77169601	     74.43492922	     -1.75879789	    -36.45295053	     31.65218989	     87.38021073	      0.37786689	     -0.46408503	      0.39594991	     -0.23204252	     42.75686305	    -20.95712293	     15.90433398	     10.30758233	     83.20893504	     11.62311354	     73.44603912	     84.17685282	     92.25163907	     -2.34902198	     78.50566751	     56.73546804	     89.36210938	    -13.87918965	     91.54363204	     40.22603136	    100.29525373	    -14.32504762	     89.70969060	      5.38931281	      0.00094696	     -0.03122782	     -0.00488435	      0.01409506	     -0.01879847	     -0.00083835	      0.00109359	     -0.06907482	     -0.00708894	      0.01289685	     -0.18219073	      0.00012253	     -0.01048560	      0.00365405	     -0.00080205	      0.00029446	      0.00011778	      0.00058892	      0.00037691	      0.00113072	      0.00063603	     -0.00000583	     -0.00005328	     -0.00006394	      0.00243981	      0.00856002	      0.00595480	     -0.00798109	      0.01927039	     -0.01827793	      0.00243981	      0.00856002	      0.00595480	      0.00053759	      0.01786440	     -0.00938708	      0.00388182	      0.00476012	      0.01580375	      0.00000000	      0.00740744	      0.00000000	     -0.00698862	     -0.03229652	     -0.00610561	      0.02146012	     -0.00098280	     -0.01087774	     -0.00086841	      0.01455618	     -0.00595480	      0.00239846	      0.02100721	     -0.01736816	     -0.00583074	      0.01261260	     -0.00533451	     -0.01215772	      0.02663119	     -0.02981535	     -0.02282673	      0.01410130	     -0.00715403	     -0.01513512	      0.03076646	     -0.03725885
      0.60000000	     -0.31432478	      0.13313314	     -0.13313314	      0.31432478	     -0.06364437	      0.51435145	      0.23119744	     -0.23119744	     -0.51435145	      0.06364437	    100.76755009	     74.41918634	     -1.75872553	    -36.45113702	     31.64595422	     87.38044313	      0.37785407	     -0.46406745	      0.39593990	     -0.23203372	     42.75686132	    -20.95701124	     15.90436262	     10.30757034	     83.21001250	     11.62308267	     73.44618106	     84.17685691	     92.25260645	     -2.34914010	     78.50572350	     56.73543888	     89.36271050	    -13.87924209	     91.54350453	     40.22605147	    100.29573099	    -14.32503387	     89.70981550	      5.38935291	      0.00094675	     -0.03122711	     -0.00488423	      0.01409503	     -0.01879678	     -0.00083831	      0.00109357	     -0.06907483	     -0.00708896	      0.01289688	     -0.18219072	      0.00012254	     -0.01048563	      0.00365406	     -0.00080206	      0.00029445	      0.00011778	      0.00058891	      0.00037690	      0.00113070	      0.00063602	     -0.00000583	     -0.00005328	     -0.00006394	      0.00243930	      0.00855821	      0.00595354	     -0.00797940	      0.01926632	     -0.01827406	      0.00243930	      0.00855821	      0.00595354	      0.00053747	      0.01786062	     -0.00938509	      0.00388122	      0.00475911	      0.01580223	      0.00000000	      0.00740429	      0.00000000	     -0.00698714	     -0.03228969	     -0.00610299	      0.02145947	     -0.00098274	     -0.01087673	     -0.00086822	      0.01455310	     -0.00595354	      0.00239795	      0.02100277	     -0.01736449	     -0.00582951	      0.01260993	     -0.00533338	     -0.01215514	      0.02662555	     -0.02980904	     -0.02282190	      0.01409831	     -0.00715252	     -0.01513191	      0.03075996	     -0.03725097
